name C:\Users\u0101727\Documents\MyRepositories\upper-imu-dc\Results\main_tracking\Case_32\ABD01_linearAccelerations_groundFrame.mot
datacolumns 4
datarows 141
range 8.06000000 9.46000000
endheader 
time	radius_imu_x	radius_imu_y	radius_imu_z	
          8.06000000	         -2.86747041	         10.17455230	         -1.08208738	
          8.07000000	         -2.83090320	         10.24252291	         -1.02746436	
          8.08000000	         -2.74908790	         10.29479439	         -0.96602605	
          8.09000000	         -2.63434628	         10.33031053	         -0.90597983	
          8.10000000	         -2.50266112	         10.35064381	         -0.85377730	
          8.11000000	         -2.37208024	         10.35931525	         -0.81262963	
          8.12000000	         -2.26071309	         10.35992816	         -0.78241119	
          8.13000000	         -2.18344073	         10.35446100	         -0.76080028	
          8.14000000	         -2.14756224	         10.34270834	         -0.74478682	
          8.15000000	         -2.14923344	         10.32266226	         -0.73179495	
          8.16000000	         -2.17254843	         10.29106507	         -0.72026818	
          8.17000000	         -2.19113881	         10.24398625	         -0.70985297	
          8.18000000	         -2.17084654	         10.17788930	         -0.70139946	
          8.19000000	         -2.07294701	         10.09155696	         -0.69698201	
          8.20000000	         -1.85905374	          9.98872958	         -0.69981569	
          8.21000000	         -1.49927901	          9.88040823	         -0.71360259	
          8.22000000	         -0.98380431	          9.78466936	         -0.74077228	
          8.23000000	         -0.33509574	          9.72164121	         -0.77964279	
          8.24000000	          0.38541552	          9.70360566	         -0.82205674	
          8.25000000	          1.08476098	          9.72525174	         -0.85402966	
          8.26000000	          1.66375812	          9.76246901	         -0.86040700	
          8.27000000	          2.04809462	          9.78290281	         -0.83137174	
          8.28000000	          2.20472942	          9.76108632	         -0.76712028	
          8.29000000	          2.13817614	          9.68820052	         -0.67830593	
          8.30000000	          1.87812047	          9.57304142	         -0.58210533	
          8.31000000	          1.46929229	          9.43627522	         -0.49588904	
          8.32000000	          0.96633451	          9.30107123	         -0.43195070	
          8.33000000	          0.43126709	          9.18344727	         -0.39612211	
          8.34000000	         -0.06965799	          9.08637965	         -0.38988318	
          8.35000000	         -0.47074386	          9.00087013	         -0.41292363	
          8.36000000	         -0.71281336	          8.91394993	         -0.46390332	
          8.37000000	         -0.75092033	          8.81982703	         -0.53951739	
          8.38000000	         -0.56512281	          8.72815812	         -0.63311752	
          8.39000000	         -0.17300410	          8.66348220	         -0.73413098	
          8.40000000	          0.36223826	          8.65340568	         -0.82935770	
          8.41000000	          0.93862614	          8.71096142	         -0.90666467	
          8.42000000	          1.44341340	          8.82396030	         -0.95972436	
          8.43000000	          1.78955439	          8.96063584	         -0.99035550	
          8.44000000	          1.93648565	          9.08673263	         -1.00614819	
          8.45000000	          1.88790126	          9.18114683	         -1.01546515	
          8.46000000	          1.67896395	          9.24224791	         -1.02409799	
          8.47000000	          1.36286206	          9.28439394	         -1.03511769	
          8.48000000	          0.99762609	          9.32823422	         -1.05017498	
          8.49000000	          0.63408384	          9.39062099	         -1.07028565	
          8.50000000	          0.30792065	          9.47895450	         -1.09546926	
          8.51000000	          0.03714102	          9.59091743	         -1.12370488	
          8.52000000	         -0.17618572	          9.71758148	         -1.15023392	
          8.53000000	         -0.34188159	          9.84728564	         -1.16814107	
          8.54000000	         -0.47669291	          9.96876144	         -1.17032321	
          8.55000000	         -0.59854138	         10.07328135	         -1.15205744	
          8.56000000	         -0.72022818	         10.15605359	         -1.11301319	
          8.57000000	         -0.84448864	         10.21673831	         -1.05782288	
          8.58000000	         -0.96294817	         10.25878165	         -0.99489979	
          8.59000000	         -1.05979466	         10.28768347	         -0.93377877	
          8.60000000	         -1.11828900	         10.30890094	         -0.88190875	
          8.61000000	         -1.12633142	         10.32642137	         -0.84246786	
          8.62000000	         -1.07786884	         10.34283562	         -0.81466718	
          8.63000000	         -0.97079111	         10.36060303	         -0.79638543	
          8.64000000	         -0.80570662	         10.38295610	         -0.78692794	
          8.65000000	         -0.58900543	         10.41296774	         -0.78768592	
          8.66000000	         -0.33831405	         10.45112047	         -0.79998898	
          8.67000000	         -0.08421896	         10.49341894	         -0.82174909	
          8.68000000	          0.13714288	         10.53253016	         -0.84541738	
          8.69000000	          0.29701396	         10.56173903	         -0.85880663	
          8.70000000	          0.38321081	         10.57864786	         -0.84882003	
          8.71000000	          0.40127440	         10.58633915	         -0.80636788	
          8.72000000	          0.36967827	         10.59203045	         -0.73014400	
          8.73000000	          0.31264235	         10.60431447	         -0.62740048	
          8.74000000	          0.25348727	         10.63024306	         -0.51143776	
          8.75000000	          0.20974147	         10.67309702	         -0.39703382	
          8.76000000	          0.18949138	         10.73095150	         -0.29547702	
          8.77000000	          0.18893162	         10.79600725	         -0.21087419	
          8.78000000	          0.19273667	         10.85520569	         -0.13943665	
          8.79000000	          0.17910786	         10.89296612	         -0.07282463	
          8.80000000	          0.12893540	         10.89604008	         -0.00470338	
          8.81000000	          0.03497900	         10.85870260	          0.06282189	
          8.82000000	         -0.09417366	         10.78551770	          0.11698676	
          8.83000000	         -0.23776200	         10.69000179	          0.13825753	
          8.84000000	         -0.37183620	         10.58991652	          0.10855524	
          8.85000000	         -0.47827294	         10.50177955	          0.01953674	
          8.86000000	         -0.54933418	         10.43712053	         -0.12306169	
          8.87000000	         -0.58715381	         10.40123292	         -0.30040830	
          8.88000000	         -0.60083892	         10.39341473	         -0.48546004	
          8.89000000	         -0.60361595	         10.40765859	         -0.64934527	
          8.90000000	         -0.61004209	         10.43402402	         -0.76764030	
          8.91000000	         -0.63244928	         10.46132384	         -0.82560508	
          8.92000000	         -0.67698386	         10.48073375	         -0.82130093	
          8.93000000	         -0.74083730	         10.48887024	         -0.76548833	
          8.94000000	         -0.81243652	         10.48870334	         -0.67790778	
          8.95000000	         -0.87508471	         10.48763645	         -0.58090206	
          8.96000000	         -0.91266128	         10.49356521	         -0.49253761	
          8.97000000	         -0.91495941	         10.51072239	         -0.42166917	
          8.98000000	         -0.88038044	         10.53733447	         -0.36670385	
          8.99000000	         -0.81473279	         10.56649252	         -0.31839670	
          9.00000000	         -0.72702714	         10.58989115	         -0.26525976	
          9.01000000	         -0.62513902	         10.60214425	         -0.19900324	
          9.02000000	         -0.51376518	         10.60314863	         -0.11766222	
          9.03000000	         -0.39487689	         10.59752592	         -0.02546468	
          9.04000000	         -0.26929275	         10.59195727	          0.06984569	
          9.05000000	         -0.13786664	         10.59212774	          0.16052287	
          9.06000000	         -0.00165607	         10.60075543	          0.24157095	
          9.07000000	          0.13846700	         10.61723227	          0.31196810	
          9.08000000	          0.28162528	         10.63837693	          0.37442093	
          9.09000000	          0.42552798	         10.65950076	          0.43402333	
          9.10000000	          0.56485943	         10.67573036	          0.49610495	
          9.11000000	          0.69112422	         10.68392404	          0.56371143	
          9.12000000	          0.79408660	         10.68461631	          0.63564819	
          9.13000000	          0.86329523	         10.68248539	          0.70618522	
          9.14000000	          0.88846442	         10.68436571	          0.76689418	
          9.15000000	          0.85915293	         10.69555796	          0.80996862	
          9.16000000	          0.76544160	         10.71660511	          0.83156050	
          9.17000000	          0.60107668	         10.74260098	          0.83364340	
          9.18000000	          0.36897863	         10.76539551	          0.82359783	
          9.19000000	          0.08734021	         10.77712605	          0.81164545	
          9.20000000	         -0.20671462	         10.77308137	          0.80699964	
          9.21000000	         -0.46091203	         10.75255248	          0.81418754	
          9.22000000	         -0.62251003	         10.71743382	          0.83147357	
          9.23000000	         -0.65738645	         10.67017384	          0.85255271	
          9.24000000	         -0.56078643	         10.61309266	          0.87012823	
          9.25000000	         -0.35529552	         10.54911020	          0.87850051	
          9.26000000	         -0.08151814	         10.48248387	          0.87397185	
          9.27000000	          0.21200713	         10.41852864	          0.85424854	
          9.28000000	          0.47614932	         10.36228534	          0.81846589	
          9.29000000	          0.66589280	         10.31706655	          0.76839030	
          9.30000000	          0.74458882	         10.28384019	          0.71024933	
          9.31000000	          0.68894595	         10.26147505	          0.65605940	
          9.32000000	          0.49399961	         10.24748074	          0.62306911	
          9.33000000	          0.17649104	         10.23910384	          0.63035542	
          9.34000000	         -0.22400482	         10.23450865	          0.69302813	
          9.35000000	         -0.64679874	         10.23353943	          0.81598773	
          9.36000000	         -1.01831248	         10.23766150	          0.99007854	
          9.37000000	         -1.27031336	         10.24898223	          1.19343073	
          9.38000000	         -1.36201799	         10.26886629	          1.39815966	
          9.39000000	         -1.29239283	         10.29698136	          1.57836649	
          9.40000000	         -1.09605463	         10.33099253	          1.71468404	
          9.41000000	         -0.82807783	         10.36645957	          1.79451081	
          9.42000000	         -0.54690554	         10.39677671	          1.81053686	
          9.43000000	         -0.30135644	         10.41380178	          1.76004682	
          9.44000000	         -0.12299064	         10.40979416	          1.64554200	
          9.45000000	         -0.02290877	         10.37999246	          1.47584739	
          9.46000000	          0.00732624	         10.32426264	          1.26645166	
